# xmcd CD database file
# Copyright (C) 1996 Ti Kan
#
# Track frame offsets:
# 	150
# 	13630
# 	22698
# 	36570
# 	48683
# 	65038
# 	76068
# 	87445
# 	98880
# 	109940
# 	122125
# 	132095
#
# Disc length: 1934 seconds
#
# Revision: 1
# Processed by: cddbd v1.4b41PL1 Copyright (c) Steve Scherf et al.
# Submitted via: DiscPlay 3.4.1
#
DISCID=9c078c0c
DTITLE=SUSAM McCANN - SIXTIES COLLECTION
DYEAR=1900
DGENRE=
TTITLE0=DAY DREAM BELEIVER
TTITLE1=MY BOY LOLLIPOP
TTITLE2=DOWNTOWN
TTITLE3=BOBBY'S GIRL
TTITLE4=COME WHAT MAY
TTITLE5=WALKING BACK TO HAPPINESS
TTITLE6=LIPSTICK ON YOUR COLLAR
TTITLE7=SATURDAY NIGHT AT THE MOVIES
TTITLE8=STUPID CUPID
TTITLE9=CALENDER GUY
TTITLE10=ANOTHER SATURDAY NIGHT
TTITLE11=MR. TAMBOURINE MAN
EXTD=
EXTT0=
EXTT1=
EXTT2=
EXTT3=
EXTT4=
EXTT5=
EXTT6=
EXTT7=
EXTT8=
EXTT9=
EXTT10=
EXTT11=
PLAYORDER=
